# xmcd
#
# Track frame offsets:
#	150
#	10976
#	23052
#	35248
#	45378
#	57802
#	70819
#	80567
#
# Disc length: 1176 seconds
#
# Revision: 1
# Processed by: cddbd v1.5.2PL0 Copyright (c) Steve Scherf et al.
# Submitted via: EasyCDDAExtractor 6.5.0.1
#
DISCID=60049608
DTITLE=Dolly Parton - Don and Dolly Greatest Hits CD2
DYEAR=2007
DGENRE=Country
TTITLE0=(It Wasn't God Who Made) Honky Tonk Angels
TTITLE1=Making Believe
TTITLE2=Letter To Heaven
TTITLE3=Release Me
TTITLE4=Two Little Orphans
TTITLE5=Little Blossom
TTITLE6=Girl Left Alone
TTITLE7=Puppy Love
EXTD=rip by Feenix
EXTT0=
EXTT1=
EXTT2=
EXTT3=
EXTT4=
EXTT5=
EXTT6=
EXTT7=
PLAYORDER=
